<svg width="10" height="17" viewBox="0 0 10 17" fill="none" xmlns="http://www.w3.org/2000/svg">
<path d="M3.36602 9.46333L4.74088 8.03857L6.1098 9.46333L5.58831 7.15619L6.96316 5.66667H5.28015L4.74088 3.3919L4.2016 5.66667H2.51859L3.88752 7.15619L3.36602 9.46333ZM9.48175 6.47619C9.48175 2.8981 7.36021 0 4.74088 0C2.12154 0 0 2.8981 0 6.47619C0 8.11952 0.450383 9.60905 1.18522 10.7505V17L4.74088 15.381L8.29653 17V10.7505C9.06066 9.57141 9.48228 8.05092 9.48175 6.47619ZM4.74088 1.61905C6.70241 1.61905 8.29653 3.79667 8.29653 6.47619C8.29653 9.15571 6.70241 11.3333 4.74088 11.3333C2.77934 11.3333 1.18522 9.15571 1.18522 6.47619C1.18522 3.79667 2.77934 1.61905 4.74088 1.61905ZM4.74088 13.7619L2.37044 14.5876V12.0781C3.06972 12.6286 3.87567 12.9524 4.74088 12.9524C5.60608 12.9524 6.41203 12.6286 7.11131 12.0781V14.5876L4.74088 13.7619Z" fill="#0B1E51"/>
</svg>
