<svg width="11" height="17" viewBox="0 0 11 17" fill="none" xmlns="http://www.w3.org/2000/svg">
<path d="M5.78021 7.88503C5.86913 7.90468 5.95951 7.86949 6.03147 7.78719C6.10343 7.70489 6.15107 7.58222 6.16392 7.44618C6.17676 7.31014 6.15376 7.17187 6.09996 7.06178C6.04617 6.95169 5.96599 6.8788 5.87707 6.85915C5.14825 6.69853 4.28261 7.60732 4.28261 9.10055C4.28261 9.23797 4.31829 9.36975 4.38181 9.46692C4.44532 9.56409 4.53146 9.61867 4.62128 9.61867C4.7111 9.61867 4.79724 9.56409 4.86076 9.46692C4.92427 9.36975 4.95995 9.23797 4.95995 9.10055C4.95995 8.27155 5.43883 7.80939 5.78021 7.88503Z" fill="#0B1E51"/>
<path d="M1.39426 5.32017C-0.242863 7.29733 -0.285535 10.6485 0.481889 12.9055C0.997343 14.4226 1.98897 15.7728 3.4764 15.7728C3.84555 15.7728 4.11174 15.7572 4.32172 15.7458C4.95639 15.7085 5.07153 15.7023 5.95546 16.2432C7.13132 16.9624 8.38168 16.7489 9.42614 15.75C10.3663 14.8505 10.9061 12.7635 10.8147 11.0693C10.7598 10.0517 10.8093 9.65375 10.8729 9.13977C10.9156 8.79781 10.9644 8.40611 10.9935 7.74706C11.066 6.09425 10.5566 4.54298 10.2796 3.8031C10.0019 3.06322 9.53451 1.90677 8.43452 0.844621C7.53163 -0.0278987 5.82135 -0.445506 4.46802 0.693329C3.4764 1.52751 2.98059 2.28604 2.38589 3.80207C2.16033 4.37719 1.94426 4.6549 1.39426 5.32017ZM8.78199 8.77191C8.78199 9.3836 8.70324 9.98929 8.55023 10.5544C8.39723 11.1195 8.17296 11.633 7.89024 12.0656C7.60752 12.4981 7.27188 12.8412 6.90249 13.0753C6.5331 13.3094 6.13718 13.4298 5.73736 13.4298C5.33753 13.4298 4.94162 13.3094 4.57223 13.0753C4.20283 12.8412 3.86719 12.4981 3.58447 12.0656C3.30175 11.633 3.07749 11.1195 2.92448 10.5544C2.77147 9.98929 2.69272 9.3836 2.69272 8.77191C2.69272 7.53655 3.01349 6.35179 3.58447 5.47825C4.15545 4.60472 4.92987 4.11398 5.73736 4.11398C6.54484 4.11398 7.31926 4.60472 7.89024 5.47825C8.46122 6.35179 8.78199 7.53655 8.78199 8.77191Z" fill="#0B1E51"/>
</svg>
