<svg width="4" height="17" viewBox="0 0 4 17" fill="none" xmlns="http://www.w3.org/2000/svg">
<path d="M2.04354 8.0421C2.07498 8.06214 2.10693 8.02624 2.13237 7.9423C2.15781 7.85836 2.17465 7.73326 2.17919 7.59451C2.18373 7.45576 2.1756 7.31473 2.15658 7.20244C2.13756 7.09016 2.10922 7.01582 2.07778 6.99578C1.82013 6.83196 1.51412 7.75885 1.51412 9.28183C1.51412 9.42198 1.52673 9.55639 1.54918 9.65549C1.57164 9.7546 1.60209 9.81027 1.63384 9.81027C1.66559 9.81027 1.69605 9.7546 1.7185 9.65549C1.74095 9.55639 1.75357 9.42198 1.75357 9.28183C1.75357 8.43632 1.92286 7.96495 2.04354 8.0421Z" fill="#0B1E51"/>
<path d="M0.492897 5.42614C-0.0858563 7.44269 -0.100942 10.8607 0.170356 13.1626C0.352579 14.7098 0.703135 16.087 1.22897 16.087C1.35947 16.087 1.45358 16.0711 1.5278 16.0595C1.75217 16.0214 1.79288 16.0151 2.10536 16.5668C2.52105 17.3003 2.96308 17.0826 3.33231 16.0637C3.66467 15.1463 3.85551 13.0178 3.82318 11.2898C3.80379 10.2519 3.82127 9.84605 3.84378 9.32183C3.85886 8.97306 3.8761 8.57356 3.8864 7.90138C3.91202 6.21564 3.73195 4.63348 3.63402 3.87886C3.53584 3.12424 3.37062 1.94476 2.98175 0.861445C2.66256 -0.0284545 2.05795 -0.45438 1.57953 0.707139C1.22897 1.55793 1.05369 2.33158 0.843454 3.8778C0.763716 4.46438 0.687331 4.74762 0.492897 5.42614ZM3.10459 8.94664C3.10459 9.57051 3.07675 10.1883 3.02266 10.7647C2.96857 11.341 2.88929 11.8648 2.78934 12.3059C2.68939 12.747 2.57074 13.097 2.44015 13.3357C2.30957 13.5745 2.1696 13.6973 2.02826 13.6973C1.88691 13.6973 1.74695 13.5745 1.61636 13.3357C1.48578 13.097 1.36712 12.747 1.26718 12.3059C1.16723 11.8648 1.08795 11.341 1.03386 10.7647C0.979765 10.1883 0.951925 9.57051 0.951925 8.94664C0.951925 7.68667 1.06532 6.47831 1.26718 5.58738C1.46903 4.69645 1.7428 4.19593 2.02826 4.19593C2.31372 4.19593 2.58749 4.69645 2.78934 5.58738C2.99119 6.47831 3.10459 7.68667 3.10459 8.94664Z" fill="#0B1E51"/>
</svg>
