<svg width="18" height="17" viewBox="0 0 18 17" fill="none" xmlns="http://www.w3.org/2000/svg">
<path d="M16.799 12.0453L15.6657 10.1598C15.4149 9.74856 15.1943 8.95624 15.1943 8.47483V6.59933C15.1943 2.95867 12.2356 0 8.60498 0C4.96432 0.0100294 2.00565 2.95867 2.00565 6.59933V8.4648C2.00565 8.94621 1.785 9.73853 1.5443 10.1497L0.410977 12.0353C-0.0202864 12.7674 -0.12058 13.5998 0.150213 14.322C0.421006 15.0541 1.0328 15.6358 1.83515 15.8966C2.91832 16.2576 4.01153 16.5184 5.12479 16.709C5.23511 16.729 5.34543 16.739 5.45576 16.7591C5.59617 16.7792 5.74661 16.7992 5.89705 16.8193C6.15781 16.8594 6.41858 16.8895 6.68937 16.9095C7.32122 16.9697 7.9631 16.9998 8.60498 16.9998C9.23684 16.9998 9.86869 16.9697 10.4905 16.9095C10.7212 16.8895 10.9519 16.8694 11.1725 16.8393C11.353 16.8193 11.5336 16.7992 11.7141 16.7691C11.8244 16.7591 11.9347 16.739 12.0451 16.719C13.1684 16.5385 14.2816 16.2576 15.3648 15.8966C16.137 15.6358 16.7288 15.0541 17.0096 14.3119C17.2904 13.5597 17.2102 12.7373 16.799 12.0453ZM9.33713 7.97336C9.33713 8.39459 8.99613 8.73559 8.57489 8.73559C8.15366 8.73559 7.81266 8.39459 7.81266 7.97336V4.86425C7.81266 4.44302 8.15366 4.10202 8.57489 4.10202C8.99613 4.10202 9.33713 4.44302 9.33713 4.86425V7.97336Z" fill="#C4C4C4"/>
</svg>
