<svg width="10" height="16" viewBox="0 0 10 16" fill="none" xmlns="http://www.w3.org/2000/svg">
<path d="M1.17127 0H8.19892C8.50957 0 8.80748 0.168571 9.02714 0.468629C9.2468 0.768687 9.3702 1.17565 9.3702 1.6V16H0V1.6C0 1.17565 0.123402 0.768687 0.343058 0.468629C0.562715 0.168571 0.860633 0 1.17127 0ZM1.17127 14.4H3.51382V11.2H5.85637V14.4H8.19892V1.6H1.17127V14.4ZM5.27074 3.2H7.02765V5.6H5.27074V3.2ZM2.34255 7.2H4.09946V9.6H2.34255V7.2ZM5.27074 7.2H7.02765V9.6H5.27074V7.2ZM2.34255 3.2H4.09946V5.6H2.34255V3.2Z" fill="#0B1E51"/>
</svg>
