<svg width="11" height="17" viewBox="0 0 11 17" fill="none" xmlns="http://www.w3.org/2000/svg">
<path d="M3.66724 9.46333L5.13521 8.03857L6.59686 9.46333L6.04004 7.15619L7.50801 5.66667H5.71101L5.13521 3.3919L4.55941 5.66667H2.76241L4.22406 7.15619L3.66724 9.46333ZM10.1972 6.47619C10.1972 2.8981 7.93195 0 5.13521 0C2.33847 0 0.0732422 2.8981 0.0732422 6.47619C0.0732422 8.11952 0.554129 9.60905 1.33873 10.7505V17L5.13521 15.381L8.93169 17V10.7505C9.74757 9.57141 10.1977 8.05092 10.1972 6.47619ZM5.13521 1.61905C7.2296 1.61905 8.93169 3.79667 8.93169 6.47619C8.93169 9.15571 7.2296 11.3333 5.13521 11.3333C3.04082 11.3333 1.33873 9.15571 1.33873 6.47619C1.33873 3.79667 3.04082 1.61905 5.13521 1.61905ZM5.13521 13.7619L2.60423 14.5876V12.0781C3.35087 12.6286 4.2114 12.9524 5.13521 12.9524C6.05902 12.9524 6.91956 12.6286 7.6662 12.0781V14.5876L5.13521 13.7619Z" fill="#0B1E51"/>
</svg>
