<svg width="11" height="16" viewBox="0 0 11 16" fill="none" xmlns="http://www.w3.org/2000/svg">
<path d="M1.32385 0H8.82747C9.15915 0 9.47725 0.168571 9.71178 0.468629C9.94632 0.768687 10.0781 1.17565 10.0781 1.6V16H0.0732422V1.6C0.0732422 1.17565 0.205002 0.768687 0.439536 0.468629C0.674069 0.168571 0.992166 0 1.32385 0ZM1.32385 14.4H3.82506V11.2H6.32626V14.4H8.82747V1.6H1.32385V14.4ZM5.70096 3.2H7.57687V5.6H5.70096V3.2ZM2.57445 7.2H4.45036V9.6H2.57445V7.2ZM5.70096 7.2H7.57687V9.6H5.70096V7.2ZM2.57445 3.2H4.45036V5.6H2.57445V3.2Z" fill="#0B1E51"/>
</svg>
