<svg width="40" height="40" viewBox="0 0 40 40" fill="none" xmlns="http://www.w3.org/2000/svg">
<rect width="40" height="40" rx="10" fill="#61DEED"/>
<path d="M14.3312 19.6092C14.4228 19.6282 14.5159 19.5942 14.5901 19.5148C14.6642 19.4354 14.7133 19.317 14.7265 19.1857C14.7398 19.0544 14.7161 18.921 14.6606 18.8148C14.6052 18.7085 14.5226 18.6382 14.431 18.6192C13.68 18.4642 12.7881 19.3412 12.7881 20.7822C12.7881 20.9148 12.8249 21.042 12.8903 21.1358C12.9557 21.2295 13.0445 21.2822 13.137 21.2822C13.2296 21.2822 13.3184 21.2295 13.3838 21.1358C13.4492 21.042 13.486 20.9148 13.486 20.7822C13.486 19.9822 13.9794 19.5362 14.3312 19.6092Z" fill="#0B1E51"/>
<path d="M9.81162 17.1341C8.12476 19.0421 8.08079 22.2761 8.87153 24.4541C9.40264 25.9181 10.4244 27.2211 11.957 27.2211C12.3374 27.2211 12.6117 27.2061 12.828 27.1951C13.482 27.1591 13.6006 27.1531 14.5114 27.6751C15.723 28.3691 17.0113 28.1631 18.0875 27.1991C19.0562 26.3311 19.6125 24.3171 19.5182 22.6821C19.4617 21.7001 19.5127 21.3161 19.5783 20.8201C19.6222 20.4901 19.6725 20.1121 19.7025 19.4761C19.7772 17.8811 19.2523 16.3841 18.9669 15.6701C18.6807 14.9561 18.1992 13.8401 17.0658 12.8151C16.1354 11.9731 14.3732 11.5701 12.9788 12.6691C11.957 13.4741 11.4461 14.2061 10.8334 15.6691C10.601 16.2241 10.3783 16.4921 9.81162 17.1341ZM17.4238 20.4651C17.4238 21.0554 17.3427 21.6399 17.185 22.1852C17.0273 22.7306 16.7963 23.2261 16.505 23.6435C16.2136 24.0609 15.8678 24.392 15.4872 24.6179C15.1066 24.8438 14.6986 24.9601 14.2867 24.9601C13.8747 24.9601 13.4668 24.8438 13.0861 24.6179C12.7055 24.392 12.3597 24.0609 12.0684 23.6435C11.7771 23.2261 11.546 22.7306 11.3883 22.1852C11.2307 21.6399 11.1495 21.0554 11.1495 20.4651C11.1495 19.2729 11.48 18.1296 12.0684 17.2866C12.6567 16.4437 13.4546 15.9701 14.2867 15.9701C15.1187 15.9701 15.9166 16.4437 16.505 17.2866C17.0933 18.1296 17.4238 19.2729 17.4238 20.4651Z" fill="#0B1E51"/>
</svg>
